<?xml version="1.0" encoding="UTF-8"?>
<svg xmlns="http://www.w3.org/2000/svg" xmlns:xlink="http://www.w3.org/1999/xlink" width="112pt" height="128pt" viewBox="0 0 112 128" version="1.1">
<g id="surface1">
<path style=" stroke:none;fill-rule:nonzero;fill:#DC6C00;fill-opacity:1;" d="M 112 24 L 112 88 C 112 100.953125 96.59375 112 79.496094 112 L 95.238281 124.429688 C 96.726562 125.605469 95.890625 128 94 128 L 18 128 C 16.105469 128 15.277344 125.601562 16.761719 124.429688 L 32.503906 112 C 15.453125 112 0 100.988281 0 88 L 0 24 C 0 10.746094 16 0 32 0 L 80 0 C 96.25 0 112 10.746094 112 24 Z M 100 58 L 100 30 C 100 26.6875 97.3125 24 94 24 L 18 24 C 14.6875 24 12 26.6875 12 30 L 12 58 C 12 61.3125 14.6875 64 18 64 L 94 64 C 97.3125 64 100 61.3125 100 58 Z M 56 74 C 48.269531 74 42 80.269531 42 88 C 42 95.730469 48.269531 102 56 102 C 63.730469 102 70 95.730469 70 88 C 70 80.269531 63.730469 74 56 74 Z M 56 74 "/>
</g>
</svg>
